<mxfile host="app.diagrams.net" agent="Mozilla/5.0 (Windows NT 10.0; Win64; x64) AppleWebKit/537.36 (KHTML, like Gecko) Chrome/135.0.0.0 Safari/537.36" version="28.1.1">
  <diagram name="Page-1" id="T62QpHZRtRv3jiwvU1oH">
    <mxGraphModel dx="1209" dy="642" grid="1" gridSize="10" guides="1" tooltips="1" connect="1" arrows="1" fold="1" page="1" pageScale="1" pageWidth="850" pageHeight="1100" math="0" shadow="0">
      <root>
        <mxCell id="0" />
        <mxCell id="1" parent="0" />
        <mxCell id="RB-Vlu9Ig94nFBYj9Arf-38" style="edgeStyle=orthogonalEdgeStyle;rounded=0;orthogonalLoop=1;jettySize=auto;html=1;strokeColor=#0B4D6A;" edge="1" parent="1" source="RB-Vlu9Ig94nFBYj9Arf-5">
          <mxGeometry relative="1" as="geometry">
            <mxPoint x="680.0000000000002" y="40" as="targetPoint" />
          </mxGeometry>
        </mxCell>
        <mxCell id="RB-Vlu9Ig94nFBYj9Arf-39" value="Text" style="edgeLabel;html=1;align=center;verticalAlign=middle;resizable=0;points=[];strokeColor=#BAC8D3;fontColor=#EEEEEE;fillColor=#09555B;" vertex="1" connectable="0" parent="RB-Vlu9Ig94nFBYj9Arf-38">
          <mxGeometry x="0.9425" y="5" relative="1" as="geometry">
            <mxPoint as="offset" />
          </mxGeometry>
        </mxCell>
        <mxCell id="RB-Vlu9Ig94nFBYj9Arf-5" value="&lt;font face=&quot;Georgia&quot; style=&quot;font-size: 18px;&quot;&gt;Plan&lt;/font&gt;" style="rounded=0;whiteSpace=wrap;html=1;" vertex="1" parent="1">
          <mxGeometry x="340" y="10" width="120" height="60" as="geometry" />
        </mxCell>
        <mxCell id="RB-Vlu9Ig94nFBYj9Arf-7" value="" style="endArrow=classic;html=1;rounded=0;" edge="1" parent="1">
          <mxGeometry width="50" height="50" relative="1" as="geometry">
            <mxPoint x="409.47" y="60" as="sourcePoint" />
            <mxPoint x="409.47" y="130" as="targetPoint" />
          </mxGeometry>
        </mxCell>
        <mxCell id="RB-Vlu9Ig94nFBYj9Arf-8" value="&lt;font style=&quot;font-size: 18px;&quot; face=&quot;Georgia&quot;&gt;Develop&lt;/font&gt;" style="ellipse;whiteSpace=wrap;html=1;aspect=fixed;" vertex="1" parent="1">
          <mxGeometry x="370" y="130" width="80" height="80" as="geometry" />
        </mxCell>
        <mxCell id="RB-Vlu9Ig94nFBYj9Arf-9" value="" style="endArrow=classic;html=1;rounded=0;" edge="1" parent="1">
          <mxGeometry width="50" height="50" relative="1" as="geometry">
            <mxPoint x="409.47" y="210" as="sourcePoint" />
            <mxPoint x="409.47" y="280" as="targetPoint" />
            <Array as="points" />
          </mxGeometry>
        </mxCell>
        <mxCell id="RB-Vlu9Ig94nFBYj9Arf-12" value="&lt;span style=&quot;font-weight: normal;&quot;&gt;&lt;font style=&quot;font-size: 18px;&quot; face=&quot;Georgia&quot;&gt;Built&lt;/font&gt;&lt;/span&gt;" style="rhombus;whiteSpace=wrap;html=1;fontStyle=1" vertex="1" parent="1">
          <mxGeometry x="370" y="280" width="80" height="80" as="geometry" />
        </mxCell>
        <mxCell id="RB-Vlu9Ig94nFBYj9Arf-13" value="" style="endArrow=classic;html=1;rounded=0;" edge="1" parent="1">
          <mxGeometry width="50" height="50" relative="1" as="geometry">
            <mxPoint x="410" y="360" as="sourcePoint" />
            <mxPoint x="410" y="410" as="targetPoint" />
          </mxGeometry>
        </mxCell>
        <mxCell id="RB-Vlu9Ig94nFBYj9Arf-14" value="Test" style="shape=trapezoid;perimeter=trapezoidPerimeter;whiteSpace=wrap;html=1;fixedSize=1;" vertex="1" parent="1">
          <mxGeometry x="350" y="410" width="120" height="60" as="geometry" />
        </mxCell>
        <mxCell id="RB-Vlu9Ig94nFBYj9Arf-16" value="" style="endArrow=classic;html=1;rounded=0;exitX=0.5;exitY=1;exitDx=0;exitDy=0;" edge="1" parent="1" source="RB-Vlu9Ig94nFBYj9Arf-14">
          <mxGeometry width="50" height="50" relative="1" as="geometry">
            <mxPoint x="400" y="510" as="sourcePoint" />
            <mxPoint x="410" y="530" as="targetPoint" />
          </mxGeometry>
        </mxCell>
        <mxCell id="RB-Vlu9Ig94nFBYj9Arf-17" value="&lt;font style=&quot;font-size: 18px;&quot;&gt;Release&lt;/font&gt;" style="shape=hexagon;perimeter=hexagonPerimeter2;whiteSpace=wrap;html=1;fixedSize=1;" vertex="1" parent="1">
          <mxGeometry x="350" y="530" width="120" height="80" as="geometry" />
        </mxCell>
        <mxCell id="RB-Vlu9Ig94nFBYj9Arf-21" value="" style="endArrow=classic;html=1;rounded=0;exitX=0.5;exitY=1;exitDx=0;exitDy=0;" edge="1" parent="1" source="RB-Vlu9Ig94nFBYj9Arf-17">
          <mxGeometry width="50" height="50" relative="1" as="geometry">
            <mxPoint x="400" y="530" as="sourcePoint" />
            <mxPoint x="410" y="660" as="targetPoint" />
          </mxGeometry>
        </mxCell>
        <mxCell id="RB-Vlu9Ig94nFBYj9Arf-28" value="" style="edgeStyle=orthogonalEdgeStyle;rounded=0;orthogonalLoop=1;jettySize=auto;html=1;" edge="1" parent="1" source="RB-Vlu9Ig94nFBYj9Arf-22" target="RB-Vlu9Ig94nFBYj9Arf-27">
          <mxGeometry relative="1" as="geometry" />
        </mxCell>
        <mxCell id="RB-Vlu9Ig94nFBYj9Arf-22" value="&lt;font face=&quot;Georgia&quot; style=&quot;font-size: 18px;&quot;&gt;Deploy&lt;/font&gt;" style="ellipse;whiteSpace=wrap;html=1;" vertex="1" parent="1">
          <mxGeometry x="350" y="660" width="120" height="80" as="geometry" />
        </mxCell>
        <mxCell id="RB-Vlu9Ig94nFBYj9Arf-31" value="" style="edgeStyle=orthogonalEdgeStyle;rounded=0;orthogonalLoop=1;jettySize=auto;html=1;" edge="1" parent="1" source="RB-Vlu9Ig94nFBYj9Arf-27" target="RB-Vlu9Ig94nFBYj9Arf-30">
          <mxGeometry relative="1" as="geometry" />
        </mxCell>
        <mxCell id="RB-Vlu9Ig94nFBYj9Arf-27" value="&lt;font face=&quot;Georgia&quot; style=&quot;font-size: 18px;&quot;&gt;Operate&lt;/font&gt;" style="ellipse;shape=cloud;whiteSpace=wrap;html=1;" vertex="1" parent="1">
          <mxGeometry x="350" y="800" width="120" height="80" as="geometry" />
        </mxCell>
        <mxCell id="RB-Vlu9Ig94nFBYj9Arf-32" style="edgeStyle=orthogonalEdgeStyle;rounded=0;orthogonalLoop=1;jettySize=auto;html=1;" edge="1" parent="1" source="RB-Vlu9Ig94nFBYj9Arf-30">
          <mxGeometry relative="1" as="geometry">
            <mxPoint x="680" y="40" as="targetPoint" />
          </mxGeometry>
        </mxCell>
        <mxCell id="RB-Vlu9Ig94nFBYj9Arf-30" value="&lt;font style=&quot;font-size: 18px;&quot; face=&quot;Georgia&quot;&gt;Monitor&lt;/font&gt;" style="shape=parallelogram;perimeter=parallelogramPerimeter;whiteSpace=wrap;html=1;fixedSize=1;" vertex="1" parent="1">
          <mxGeometry x="350" y="940" width="120" height="60" as="geometry" />
        </mxCell>
      </root>
    </mxGraphModel>
  </diagram>
</mxfile>
